<svg width="196" height="65" viewBox="0 0 196 65" fill="none" xmlns="http://www.w3.org/2000/svg">
<rect x="1.43661" y="0.811607" width="193.162" height="63.3053" rx="10.5509" fill="black"/>
<rect x="1.43661" y="0.811607" width="193.162" height="63.3053" rx="10.5509" stroke="#A6A6A6" stroke-width="1.62321"/>
<path d="M40.8307 32.9525C40.8659 30.2239 42.3313 27.642 44.6559 26.2128C43.1894 24.1184 40.733 22.7904 38.1774 22.7105C35.4516 22.4244 32.8091 24.3415 31.4201 24.3415C30.0043 24.3415 27.8657 22.7389 25.5628 22.7862C22.561 22.8832 19.7627 24.5898 18.3023 27.2142C15.163 32.6494 17.5046 40.6373 20.5118 45.0307C22.0163 47.182 23.7747 49.5851 26.0756 49.4999C28.3271 49.4065 29.1679 48.0642 31.8857 48.0642C34.5782 48.0642 35.3671 49.4999 37.7147 49.4457C40.1306 49.4065 41.6528 47.2848 43.1046 45.1131C44.1856 43.5802 45.0174 41.886 45.5693 40.0933C42.7301 38.8925 40.834 36.0352 40.8307 32.9525Z" fill="white"/>
<path d="M36.3966 19.8211C37.7139 18.2398 38.3629 16.2072 38.2057 14.1551C36.1932 14.3665 34.3342 15.3283 32.9992 16.849C31.6936 18.3348 31.0142 20.3316 31.1427 22.3053C33.1559 22.326 35.1351 21.3902 36.3966 19.8211Z" fill="white"/>
<path d="M132.958 31.1672V34.886H130.627V37.3248H132.958V45.6113C132.958 48.4408 134.238 49.5726 137.459 49.5726C138.024 49.5726 138.563 49.5053 139.035 49.4244V47.0126C138.631 47.053 138.375 47.08 137.93 47.08C136.488 47.08 135.855 46.4063 135.855 44.8702V37.3248H139.035V34.886H135.855V31.1672H132.958Z" fill="white"/>
<path d="M147.238 49.7747C151.523 49.7747 154.151 46.9048 154.151 42.1485C154.151 37.4191 151.51 34.5357 147.238 34.5357C142.954 34.5357 140.313 37.4191 140.313 42.1485C140.313 46.9048 142.94 49.7747 147.238 49.7747ZM147.238 47.2012C144.719 47.2012 143.304 45.3553 143.304 42.1485C143.304 38.9686 144.719 37.1092 147.238 37.1092C149.745 37.1092 151.173 38.9686 151.173 42.1485C151.173 45.3418 149.745 47.2012 147.238 47.2012Z" fill="white"/>
<path d="M156.399 49.4918H159.295V40.828C159.295 38.7665 160.845 37.3787 163.041 37.3787C163.553 37.3787 164.416 37.473 164.658 37.5539V34.6974C164.348 34.6166 163.796 34.5761 163.365 34.5761C161.451 34.5761 159.821 35.6271 159.403 37.0688H159.188V34.8187H156.399V49.4918Z" fill="white"/>
<path d="M171.851 37.0014C173.993 37.0014 175.395 38.4971 175.462 40.8011H168.051C168.213 38.5105 169.709 37.0014 171.851 37.0014ZM175.449 45.5305C174.91 46.6757 173.71 47.309 171.959 47.309C169.641 47.309 168.146 45.6787 168.051 43.1051V42.9435H178.413V41.9329C178.413 37.3248 175.947 34.5357 171.865 34.5357C167.728 34.5357 165.101 37.5135 165.101 42.2024C165.101 46.8913 167.674 49.7747 171.878 49.7747C175.233 49.7747 177.577 48.1579 178.238 45.5305H175.449Z" fill="white"/>
<path d="M113.961 44.0732C114.184 47.6763 117.187 49.9806 121.656 49.9806C126.432 49.9806 129.42 47.5646 129.42 43.7101C129.42 40.6797 127.717 39.0038 123.583 38.0402L121.362 37.4956C118.737 36.8811 117.676 36.0571 117.676 34.6187C117.676 32.8032 119.324 31.6162 121.795 31.6162C124.142 31.6162 125.762 32.7753 126.055 34.6327H129.099C128.918 31.2391 125.929 28.851 121.837 28.851C117.438 28.851 114.505 31.2391 114.505 34.8282C114.505 37.7888 116.167 39.5485 119.812 40.4004L122.41 41.0288C125.077 41.6572 126.25 42.5789 126.25 44.1151C126.25 45.9027 124.407 47.2015 121.893 47.2015C119.198 47.2015 117.326 45.9865 117.061 44.0732H113.961Z" fill="white"/>
<path d="M83.9519 34.5761C81.9578 34.5761 80.2331 35.5732 79.3439 37.244H79.1283V34.8187H76.3392V54.3694H79.2361V47.2686H79.4651C80.2331 48.8181 81.8904 49.7343 83.9789 49.7343C87.6842 49.7343 90.0422 46.8105 90.0422 42.1485C90.0422 37.4865 87.6842 34.5761 83.9519 34.5761ZM83.13 47.1338C80.7047 47.1338 79.1822 45.2206 79.1822 42.162C79.1822 39.0899 80.7047 37.1766 83.1435 37.1766C85.5958 37.1766 87.0644 39.0495 87.0644 42.1485C87.0644 45.261 85.5958 47.1338 83.13 47.1338Z" fill="white"/>
<path d="M100.179 34.5761C98.1847 34.5761 96.4601 35.5732 95.5708 37.244H95.3552V34.8187H92.5661V54.3694H95.463V47.2686H95.6921C96.4601 48.8181 98.1174 49.7343 100.206 49.7343C103.911 49.7343 106.269 46.8105 106.269 42.1485C106.269 37.4865 103.911 34.5761 100.179 34.5761ZM99.357 47.1338C96.9317 47.1338 95.4091 45.2206 95.4091 42.162C95.4091 39.0899 96.9317 37.1766 99.3704 37.1766C101.823 37.1766 103.291 39.0495 103.291 42.1485C103.291 45.261 101.823 47.1338 99.357 47.1338Z" fill="white"/>
<path d="M71.1416 49.4918H74.4654L67.1894 29.3398H63.8238L56.5479 49.4918H59.7599L61.6173 44.1431H69.2982L71.1416 49.4918ZM65.346 32.9987H65.5834L68.5022 41.5176H62.4133L65.346 32.9987Z" fill="white"/>
<path d="M58.4941 14.1398V23.8612H62.0041C64.901 23.8612 66.5785 22.0759 66.5785 18.9702C66.5785 15.9116 64.8875 14.1398 62.0041 14.1398H58.4941ZM60.0032 15.5141H61.8357C63.85 15.5141 65.0425 16.7941 65.0425 18.9904C65.0425 21.2203 63.8702 22.4869 61.8357 22.4869H60.0032V15.5141Z" fill="white"/>
<path d="M71.7161 24.0027C73.8585 24.0027 75.1722 22.5677 75.1722 20.1896C75.1722 17.8249 73.8517 16.3832 71.7161 16.3832C69.5738 16.3832 68.2533 17.8249 68.2533 20.1896C68.2533 22.5677 69.567 24.0027 71.7161 24.0027ZM71.7161 22.7159C70.4563 22.7159 69.7489 21.793 69.7489 20.1896C69.7489 18.5996 70.4563 17.6699 71.7161 17.6699C72.9692 17.6699 73.6833 18.5996 73.6833 20.1896C73.6833 21.7862 72.9692 22.7159 71.7161 22.7159Z" fill="white"/>
<path d="M86.3596 16.5247H84.9111L83.6042 22.1231H83.4896L81.9806 16.5247H80.5927L79.0837 22.1231H78.9759L77.6622 16.5247H76.1935L78.2146 23.8612H79.7035L81.2125 18.4582H81.3271L82.8429 23.8612H84.3452L86.3596 16.5247Z" fill="white"/>
<path d="M88.0277 23.8612H89.4761V19.5698C89.4761 18.4245 90.1565 17.7104 91.2277 17.7104C92.2989 17.7104 92.8109 18.2965 92.8109 19.4754V23.8612H94.2594V19.1116C94.2594 17.3668 93.3566 16.3832 91.7195 16.3832C90.6147 16.3832 89.8871 16.875 89.53 17.6901H89.4222V16.5247H88.0277V23.8612Z" fill="white"/>
<path d="M96.5405 23.8612H97.9889V13.6614H96.5405V23.8612Z" fill="white"/>
<path d="M103.436 24.0027C105.579 24.0027 106.893 22.5677 106.893 20.1896C106.893 17.8249 105.572 16.3832 103.436 16.3832C101.294 16.3832 99.9737 17.8249 99.9737 20.1896C99.9737 22.5677 101.287 24.0027 103.436 24.0027ZM103.436 22.7159C102.177 22.7159 101.469 21.793 101.469 20.1896C101.469 18.5996 102.177 17.6699 103.436 17.6699C104.69 17.6699 105.404 18.5996 105.404 20.1896C105.404 21.7862 104.69 22.7159 103.436 22.7159Z" fill="white"/>
<path d="M111.208 22.7631C110.42 22.7631 109.847 22.3791 109.847 21.7189C109.847 21.0721 110.305 20.7285 111.316 20.6611L113.108 20.5466V21.1597C113.108 22.0692 112.3 22.7631 111.208 22.7631ZM110.838 23.9825C111.801 23.9825 112.603 23.5648 113.041 22.8305H113.155V23.8612H114.55V18.8489C114.55 17.2994 113.512 16.3832 111.673 16.3832C110.009 16.3832 108.823 17.1916 108.675 18.4514H110.076C110.238 17.9327 110.797 17.6363 111.606 17.6363C112.596 17.6363 113.108 18.0742 113.108 18.8489V19.4822L111.121 19.5967C109.376 19.7045 108.392 20.4658 108.392 21.7862C108.392 23.1269 109.423 23.9825 110.838 23.9825Z" fill="white"/>
<path d="M119.465 23.9825C120.476 23.9825 121.331 23.5042 121.769 22.7025H121.884V23.8612H123.271V13.6614H121.823V17.6901H121.715C121.318 16.8817 120.469 16.4034 119.465 16.4034C117.612 16.4034 116.42 17.872 116.42 20.1896C116.42 22.5138 117.599 23.9825 119.465 23.9825ZM119.876 17.7036C121.089 17.7036 121.85 18.667 121.85 20.1963C121.85 21.7323 121.095 22.6822 119.876 22.6822C118.65 22.6822 117.916 21.7458 117.916 20.1896C117.916 18.6468 118.657 17.7036 119.876 17.7036Z" fill="white"/>
<path d="M132.664 24.0027C134.806 24.0027 136.12 22.5677 136.12 20.1896C136.12 17.8249 134.8 16.3832 132.664 16.3832C130.522 16.3832 129.201 17.8249 129.201 20.1896C129.201 22.5677 130.515 24.0027 132.664 24.0027ZM132.664 22.7159C131.404 22.7159 130.697 21.793 130.697 20.1896C130.697 18.5996 131.404 17.6699 132.664 17.6699C133.917 17.6699 134.631 18.5996 134.631 20.1896C134.631 21.7862 133.917 22.7159 132.664 22.7159Z" fill="white"/>
<path d="M138.038 23.8612H139.486V19.5698C139.486 18.4245 140.166 17.7104 141.238 17.7104C142.309 17.7104 142.821 18.2965 142.821 19.4754V23.8612H144.269V19.1116C144.269 17.3668 143.366 16.3832 141.729 16.3832C140.625 16.3832 139.897 16.875 139.54 17.6901H139.432V16.5247H138.038V23.8612Z" fill="white"/>
<path d="M150.94 14.6989V16.5583H149.775V17.7777H150.94V21.921C150.94 23.3357 151.58 23.9016 153.19 23.9016C153.473 23.9016 153.743 23.8679 153.979 23.8275V22.6216C153.776 22.6418 153.648 22.6553 153.426 22.6553C152.705 22.6553 152.389 22.3184 152.389 21.5504V17.7777H153.979V16.5583H152.389V14.6989H150.94Z" fill="white"/>
<path d="M155.923 23.8612H157.371V19.5765C157.371 18.4649 158.032 17.7171 159.217 17.7171C160.241 17.7171 160.787 18.3099 160.787 19.4822V23.8612H162.235V19.1251C162.235 17.3802 161.272 16.3899 159.709 16.3899C158.604 16.3899 157.829 16.8817 157.472 17.7036H157.358V13.6614H155.923V23.8612Z" fill="white"/>
<path d="M167.461 17.616C168.532 17.616 169.232 18.3638 169.266 19.5159H165.561C165.642 18.3706 166.389 17.616 167.461 17.616ZM169.259 21.8805C168.99 22.4532 168.39 22.7698 167.514 22.7698C166.356 22.7698 165.608 21.9546 165.561 20.6679V20.587H170.741V20.0818C170.741 17.7777 169.509 16.3832 167.467 16.3832C165.399 16.3832 164.085 17.872 164.085 20.2165C164.085 22.561 165.372 24.0027 167.474 24.0027C169.152 24.0027 170.324 23.1943 170.654 21.8805H169.259Z" fill="white"/>
</svg>
