<svg width="17" height="17" viewBox="0 0 17 17" fill="none" xmlns="http://www.w3.org/2000/svg">
<path fill-rule="evenodd" clip-rule="evenodd" d="M11.0401 11.4818C10.9664 11.5505 10.9073 11.6333 10.8663 11.7253C10.8253 11.8173 10.8033 11.9166 10.8015 12.0173C10.7997 12.118 10.8183 12.218 10.856 12.3114C10.8937 12.4048 10.9498 12.4897 11.0211 12.5609C11.0923 12.6321 11.1771 12.6882 11.2705 12.726C11.3639 12.7637 11.4639 12.7822 11.5646 12.7804C11.6653 12.7787 11.7646 12.7566 11.8566 12.7156C11.9486 12.6746 12.0314 12.6155 12.1001 12.5418L15.3501 9.29184L15.8811 8.76184L15.3511 8.23184L12.1011 4.98184C11.9597 4.84515 11.7703 4.76947 11.5737 4.77108C11.377 4.7727 11.1889 4.85149 11.0497 4.99048C10.9106 5.12947 10.8316 5.31754 10.8298 5.51419C10.828 5.71084 10.9036 5.90032 11.0401 6.04184L13.0101 8.01184H2.6311C2.43219 8.01184 2.24143 8.09086 2.10077 8.23151C1.96012 8.37216 1.8811 8.56293 1.8811 8.76184C1.8811 8.96075 1.96012 9.15152 2.10077 9.29217C2.24143 9.43282 2.43219 9.51184 2.6311 9.51184H13.0101L11.0401 11.4818Z" fill="#0698F9"/>
</svg>
