<svg width="450" height="320" viewBox="0 0 450 320" fill="none" xmlns="http://www.w3.org/2000/svg">
<g clip-path="url(#clip0_110_288)">
<path d="M229.824 318.936C243.359 318.936 254.331 307.899 254.331 294.285C254.331 280.67 243.359 269.634 229.824 269.634C216.29 269.634 205.318 280.67 205.318 294.285C205.318 307.899 216.29 318.936 229.824 318.936Z" fill="#0698F9"/>
<path d="M376.227 317.551C389.937 313.41 404.513 309.091 415.386 299.245C425.102 290.446 431.661 277.011 427.636 263.815C423.619 250.647 411.588 241.867 399.165 237.5C392.12 235.023 384.749 233.649 377.38 232.569C369.371 231.396 361.325 230.435 353.284 229.509C320.723 225.763 288.04 223.475 255.235 222.644C239.047 222.234 222.863 222.244 206.673 222.48C192.215 222.691 176.988 222.686 163.575 216.505C153.144 211.698 143.677 202.952 140.771 191.46C137.416 178.194 143.604 164.685 152.481 155.077C157.16 150.013 162.628 145.75 168.27 141.831C174.39 137.579 180.723 133.628 187.193 129.94C199.937 122.68 213.261 116.502 227.025 111.469C233.815 108.985 240.706 106.842 247.657 104.866C253.527 103.197 259.414 101.525 265.087 99.2508C276.052 94.8544 286.482 87.4075 289.271 75.1989C291.913 63.6281 287.458 51.067 279.646 42.4712C270.61 32.5266 256.984 28.1671 243.92 27.4618C229.255 26.6699 214.927 30.3621 201.142 35.0479C186.44 40.0457 172.055 45.7923 157.042 49.8404C142.155 53.8508 126.98 56.6883 111.654 58.3272C104.152 59.1308 96.4228 60.0382 88.8759 59.423C82.5508 58.9074 76.2581 57.0362 71.5967 52.5208C67.5997 48.6491 65.2187 43.328 66.0373 37.7126C66.1859 36.6927 67.7262 37.1263 67.5784 38.14C66.582 44.9755 71.2011 51.2742 76.8931 54.5007C83.4716 58.2296 91.4766 58.2347 98.8007 57.8082C114.681 56.8434 130.455 54.5498 145.957 50.9511C161.189 47.4513 175.878 42.4483 190.55 37.1039C204.484 32.0282 218.731 27.0742 233.617 25.9748C246.534 25.0208 260.122 26.9138 271.376 33.7041C281.265 39.6719 288.538 49.6242 290.855 61.0447C293.12 72.2046 289.984 83.4372 281.585 91.225C272.89 99.2883 260.968 102.736 249.857 105.911C235.764 109.938 221.974 114.645 208.626 120.757C195.096 126.934 182.12 134.273 169.842 142.69C157.99 150.837 146.294 161.088 142.546 175.622C140.8 182.392 141.122 189.572 144.043 195.967C146.641 201.653 150.919 206.435 155.903 210.124C167.795 218.926 182.782 220.733 197.146 220.913C213.278 221.115 229.411 220.567 245.549 220.834C278.437 221.377 311.257 223.391 344.011 226.875C352.218 227.749 360.415 228.715 368.601 229.773C375.964 230.724 383.353 231.67 390.592 233.36C403.464 236.366 415.99 242.144 423.991 253.123C427.542 257.882 429.742 263.521 430.356 269.439C430.916 275.615 429.413 281.802 426.637 287.296C420.493 299.455 408.985 307.19 396.764 312.271C390.218 314.993 383.429 317.055 376.652 319.102C375.665 319.4 375.243 317.849 376.227 317.551Z" fill="#F2F2F2"/>
<path d="M67.0692 50.7188C74.1307 50.7188 79.8552 44.9604 79.8552 37.8572C79.8552 30.7539 74.1307 24.9956 67.0692 24.9956C60.0077 24.9956 54.2832 30.7539 54.2832 37.8572C54.2832 44.9604 60.0077 50.7188 67.0692 50.7188Z" fill="#F2F2F2"/>
<path d="M155.772 75.1023C162.834 75.1023 168.558 69.344 168.558 62.2407C168.558 55.1375 162.834 49.3792 155.772 49.3792C148.711 49.3792 142.986 55.1375 142.986 62.2407C142.986 69.344 148.711 75.1023 155.772 75.1023Z" fill="#F2F2F2"/>
<path d="M230.89 26.3355C237.951 26.3355 243.676 20.5771 243.676 13.4739C243.676 6.37063 237.951 0.612305 230.89 0.612305C223.828 0.612305 218.104 6.37063 218.104 13.4739C218.104 20.5771 223.828 26.3355 230.89 26.3355Z" fill="#F2F2F2"/>
<path d="M277.772 80.9971C284.833 80.9971 290.558 75.2388 290.558 68.1355C290.558 61.0322 284.833 55.2739 277.772 55.2739C270.71 55.2739 264.986 61.0322 264.986 68.1355C264.986 75.2388 270.71 80.9971 277.772 80.9971Z" fill="#F2F2F2"/>
<path d="M214.374 144.233C221.436 144.233 227.16 138.475 227.16 131.372C227.16 124.268 221.436 118.51 214.374 118.51C207.313 118.51 201.588 124.268 201.588 131.372C201.588 138.475 207.313 144.233 214.374 144.233Z" fill="#F2F2F2"/>
<path d="M133.929 174.78C140.991 174.78 146.715 169.021 146.715 161.918C146.715 154.815 140.991 149.056 133.929 149.056C126.868 149.056 121.143 154.815 121.143 161.918C121.143 169.021 126.868 174.78 133.929 174.78Z" fill="#F2F2F2"/>
<path d="M219.169 222.474C226.231 222.474 231.955 216.716 231.955 209.613C231.955 202.51 226.231 196.751 219.169 196.751C212.108 196.751 206.383 202.51 206.383 209.613C206.383 216.716 212.108 222.474 219.169 222.474Z" fill="#F2F2F2"/>
<path d="M310.802 249.269C317.864 249.269 323.588 243.511 323.588 236.408C323.588 229.304 317.864 223.546 310.802 223.546C303.741 223.546 298.016 229.304 298.016 236.408C298.016 243.511 303.741 249.269 310.802 249.269Z" fill="#F2F2F2"/>
<path d="M417.885 243.375C424.946 243.375 430.671 237.616 430.671 230.513C430.671 223.41 424.946 217.651 417.885 217.651C410.823 217.651 405.099 223.41 405.099 230.513C405.099 237.616 410.823 243.375 417.885 243.375Z" fill="#F2F2F2"/>
<path d="M227.199 37.0553C188.899 37.3275 157.539 68.6358 156.995 107.16C156.99 107.515 156.987 110.016 156.988 113.287C156.988 118.083 158.882 122.683 162.253 126.074C165.624 129.466 170.197 131.371 174.965 131.372C177.328 131.371 179.668 130.902 181.852 129.992C184.035 129.081 186.018 127.746 187.689 126.064C189.359 124.382 190.683 122.386 191.586 120.189C192.489 117.992 192.953 115.637 192.951 113.26C192.949 111.034 192.948 109.494 192.948 109.4C192.947 103.446 194.486 97.5944 197.415 92.4207C200.344 87.2469 204.561 82.9292 209.652 79.8923C214.743 76.8554 220.532 75.2038 226.45 75.1002C232.368 74.9965 238.211 76.4442 243.404 79.301C248.597 82.1578 252.961 86.3251 256.067 91.3932C259.174 96.4612 260.915 102.255 261.12 108.206C261.325 114.156 259.986 120.057 257.236 125.329C254.486 130.601 250.419 135.062 245.434 138.274L245.441 138.281C245.441 138.281 219.854 154.851 212.053 177.582L212.059 177.583C210.688 182.24 209.993 187.072 209.996 191.928C209.996 193.925 210.113 211.393 210.338 225.571C210.417 230.463 212.405 235.127 215.872 238.558C219.339 241.989 224.009 243.912 228.873 243.91C231.317 243.91 233.736 243.424 235.993 242.48C238.249 241.535 240.298 240.152 242.021 238.408C243.743 236.664 245.106 234.595 246.031 232.319C246.956 230.044 247.424 227.607 247.409 225.148C247.331 212.164 247.288 197.045 247.288 195.948C247.288 181.99 260.674 168.084 271.669 159.015C284.33 148.572 293.441 134.34 297.101 118.287C297.911 114.982 298.357 111.597 298.432 108.194C298.432 98.8085 296.586 89.5157 293 80.8511C289.414 72.1865 284.159 64.3213 277.537 57.7087C270.916 51.0961 263.059 45.8669 254.42 42.3222C245.78 38.7775 236.529 36.9875 227.199 37.0553Z" fill="#0698F9"/>
<path d="M449.366 319.612H0.634454C0.466536 319.612 0.305666 319.544 0.187102 319.425C0.0685374 319.305 0.00195312 319.143 0.00195312 318.974C0.00195312 318.805 0.0685374 318.643 0.187102 318.524C0.305666 318.404 0.466536 318.337 0.634454 318.336H449.366C449.534 318.336 449.695 318.403 449.814 318.523C449.933 318.643 450 318.805 450 318.974C450 319.144 449.933 319.306 449.814 319.425C449.695 319.545 449.534 319.612 449.366 319.612Z" fill="#3F3D56"/>
<path d="M334.805 146.911C343.632 146.911 350.788 139.713 350.788 130.834C350.788 121.954 343.632 114.757 334.805 114.757C325.979 114.757 318.823 121.954 318.823 130.834C318.823 139.713 325.979 146.911 334.805 146.911Z" fill="#2F2E41"/>
<path d="M305.272 312.575H298.741L295.633 287.233H305.273L305.272 312.575Z" fill="#A0616A"/>
<path d="M294.075 310.697H306.671V318.675H286.144C286.144 317.627 286.349 316.59 286.748 315.622C287.146 314.654 287.73 313.775 288.467 313.034C289.203 312.293 290.078 311.705 291.04 311.305C292.002 310.904 293.033 310.697 294.075 310.697Z" fill="#FF6600"/>
<path d="M355.883 312.575H349.352L346.244 287.233H355.884L355.883 312.575Z" fill="#A0616A"/>
<path d="M344.686 310.697H357.283V318.675H336.755C336.755 317.627 336.961 316.59 337.359 315.622C337.758 314.654 338.342 313.775 339.078 313.034C339.815 312.293 340.689 311.705 341.651 311.305C342.614 310.904 343.645 310.697 344.686 310.697Z" fill="#FF6600"/>
<path d="M332.377 147.004C339.603 147.004 345.462 141.111 345.462 133.842C345.462 126.573 339.603 120.68 332.377 120.68C325.15 120.68 319.292 126.573 319.292 133.842C319.292 141.111 325.15 147.004 332.377 147.004Z" fill="#A0616A"/>
<path d="M340.176 189.466L346.03 175.935C347.452 172.76 347.86 169.22 347.197 165.803C346.534 162.386 344.832 159.26 342.328 156.857C341.814 156.345 341.267 155.867 340.692 155.426C337.803 153.153 334.243 151.914 330.575 151.905C328.109 151.915 325.674 152.459 323.437 153.502C323.245 153.588 323.058 153.679 322.866 153.77C322.499 153.947 322.137 154.14 321.785 154.338C319.492 155.663 317.54 157.511 316.087 159.734C314.634 161.957 313.721 164.492 313.421 167.135L310.837 188.914C310.187 190.624 287.002 252.359 295.11 299.492C295.197 299.995 295.441 300.457 295.807 300.811C296.173 301.165 296.642 301.392 297.145 301.458L305.366 302.584C305.966 302.666 306.575 302.517 307.07 302.166C307.566 301.815 307.91 301.288 308.035 300.692L321.828 234.557C321.914 234.146 322.134 233.776 322.454 233.506C322.773 233.236 323.174 233.081 323.591 233.067C324.008 233.053 324.418 233.18 324.755 233.427C325.092 233.675 325.337 234.029 325.45 234.433L344.938 303.982C345.077 304.488 345.377 304.933 345.792 305.251C346.206 305.568 346.713 305.74 347.235 305.74C347.39 305.739 347.545 305.725 347.698 305.697L357.74 303.752C358.324 303.642 358.846 303.317 359.204 302.84C359.562 302.363 359.729 301.769 359.674 301.174C358.199 284.62 350.356 201.701 340.176 189.466Z" fill="#0698F9"/>
<path d="M281.526 144.796C281.435 145.578 281.516 146.371 281.763 147.119C282.009 147.867 282.416 148.551 282.954 149.123C283.492 149.696 284.149 150.143 284.877 150.432C285.605 150.722 286.388 150.847 287.17 150.8L294.484 168.48L300.016 160.231L292.223 144.706C292.056 143.39 291.416 142.181 290.423 141.309C289.43 140.436 288.153 139.96 286.834 139.971C285.516 139.983 284.247 140.48 283.269 141.369C282.29 142.258 281.67 143.478 281.526 144.796Z" fill="#A0616A"/>
<path d="M331.651 207.269C332.429 207.176 333.177 206.912 333.842 206.496C334.507 206.08 335.074 205.523 335.502 204.863C335.93 204.203 336.209 203.457 336.319 202.677C336.43 201.897 336.369 201.103 336.141 200.349L351.529 189.074L342.265 185.584L329.072 196.826C327.838 197.295 326.819 198.203 326.207 199.378C325.595 200.553 325.432 201.913 325.75 203.2C326.068 204.487 326.845 205.613 327.932 206.362C329.02 207.112 330.343 207.435 331.651 207.269Z" fill="#A0616A"/>
<path d="M306.565 180.268C305.975 180.267 305.386 180.209 304.808 180.093C303.408 179.825 302.095 179.215 300.985 178.316C299.875 177.418 299.002 176.258 298.443 174.94L288.196 162.371C287.979 162.106 287.821 161.796 287.733 161.464C287.645 161.132 287.628 160.785 287.684 160.446C287.74 160.107 287.868 159.784 288.058 159.499C288.248 159.213 288.497 158.972 288.787 158.791L296.078 154.252C296.347 154.084 296.646 153.972 296.959 153.921C297.272 153.871 297.591 153.883 297.899 153.957C298.207 154.031 298.497 154.166 298.753 154.354C299.008 154.541 299.225 154.778 299.389 155.05L306.611 167.019L320.442 156.737C321.543 156.156 322.816 155.993 324.026 156.278C325.237 156.563 326.306 157.277 327.037 158.288C327.768 159.3 328.112 160.543 328.008 161.789C327.903 163.035 327.357 164.202 326.467 165.077L312.663 177.743C311.041 179.361 308.849 180.268 306.565 180.268Z" fill="#CCCCCC"/>
<path d="M343.938 199.17C343.919 199.17 343.9 199.17 343.881 199.169C343.545 199.161 343.214 199.082 342.91 198.937C342.607 198.792 342.336 198.585 342.117 198.328L335.636 190.722C335.415 190.463 335.251 190.159 335.156 189.832C335.06 189.505 335.035 189.161 335.081 188.823C335.127 188.485 335.245 188.161 335.425 187.871C335.605 187.582 335.844 187.335 336.126 187.146L348.263 179.007L337.268 165.71C336.628 164.637 336.394 163.369 336.607 162.137C336.82 160.904 337.467 159.791 338.429 158.998C339.392 158.206 340.605 157.789 341.848 157.822C343.091 157.856 344.28 158.338 345.199 159.181L358.562 172.317C359.614 173.284 360.417 174.493 360.902 175.84C361.387 177.187 361.54 178.633 361.347 180.053C361.155 181.472 360.623 182.824 359.796 183.991C358.97 185.159 357.875 186.107 356.604 186.755L345.682 198.413C345.458 198.652 345.188 198.842 344.888 198.972C344.588 199.103 344.264 199.17 343.938 199.17Z" fill="#CCCCCC"/>
<path d="M329.05 171.143C328.946 171.143 328.842 171.136 328.738 171.123C328.287 171.068 327.861 170.884 327.511 170.592C327.16 170.301 326.9 169.914 326.762 169.479L321.891 154.458C321.769 154.078 321.788 153.667 321.944 153.3C322.1 152.933 322.383 152.635 322.74 152.462L322.898 152.387C323.042 152.318 323.184 152.25 323.328 152.185C325.6 151.126 328.072 150.573 330.575 150.565C333.826 150.571 337.003 151.532 339.718 153.329C340.082 153.573 340.336 153.95 340.426 154.381C340.516 154.811 340.434 155.26 340.198 155.63L331.062 170.029C330.847 170.371 330.55 170.652 330.199 170.847C329.847 171.042 329.451 171.144 329.05 171.143Z" fill="#E6E6E6"/>
<path d="M347.406 123.656C350.294 123.656 352.636 121.301 352.636 118.396C352.636 115.49 350.294 113.135 347.406 113.135C344.518 113.135 342.176 115.49 342.176 118.396C342.176 121.301 344.518 123.656 347.406 123.656Z" fill="#2F2E41"/>
<path d="M329.478 112.613C325.804 112.613 322.281 114.081 319.683 116.694C317.086 119.307 315.626 122.851 315.626 126.546V132.441H322.834L326.281 126.546L327.316 132.441H349.19L343.329 126.546C343.329 122.851 341.87 119.307 339.272 116.694C336.675 114.081 333.152 112.613 329.478 112.613Z" fill="#2F2E41"/>
<path d="M350.094 114.792C350.673 112.973 351.87 111.417 353.476 110.398C355.082 109.379 356.993 108.962 358.874 109.221C362.207 109.781 364.842 112.476 366.412 115.486C367.983 118.496 368.708 121.865 369.763 125.094C370.819 128.323 372.316 131.569 374.98 133.66C377.645 135.75 381.734 136.317 384.351 134.167C384.052 136.407 383.06 138.497 381.516 140.14C379.972 141.783 377.953 142.896 375.746 143.321C373.538 143.747 371.253 143.463 369.215 142.511C367.176 141.559 365.487 139.986 364.385 138.015C363.004 135.544 362.648 132.647 362.238 129.842C361.829 127.037 361.297 124.135 359.648 121.835C357.999 119.536 354.913 118.034 352.294 119.082L350.094 114.792Z" fill="#2F2E41"/>
<path d="M180.041 122.818C175.273 122.817 170.701 120.912 167.329 117.52C163.958 114.129 162.064 109.529 162.064 104.733C162.063 101.462 162.066 98.9614 162.071 98.6058C162.222 87.4019 165.027 76.3959 170.253 66.5007C161.667 78.3242 156.946 92.5395 156.743 107.18C156.738 107.536 156.736 110.037 156.736 113.308C156.736 118.104 158.63 122.703 162.002 126.095C165.373 129.486 169.945 131.392 174.713 131.392C178.631 131.391 182.441 130.103 185.565 127.724C188.689 125.346 190.956 122.007 192.021 118.214C188.729 121.183 184.462 122.823 180.041 122.818Z" fill="black"/>
<path d="M228.417 75.1607C233.929 75.4255 239.295 77.032 244.054 79.8422C248.813 82.6525 252.822 86.5826 255.738 91.295C258.655 96.0074 260.39 101.361 260.796 106.897C261.202 112.433 260.267 117.985 258.07 123.077C261.248 119.323 263.583 114.924 264.918 110.179C266.252 105.435 266.554 100.456 265.802 95.584C265.05 90.7116 263.263 86.0595 260.562 81.9449C257.861 77.8303 254.31 74.3499 250.151 71.741C245.991 69.1321 241.322 67.456 236.46 66.827C231.598 66.1981 226.659 66.631 221.979 68.0964C217.298 69.5617 212.987 72.0249 209.339 75.3181C205.691 78.6114 202.792 82.6572 200.839 87.1797C204.214 83.1858 208.456 80.0251 213.237 77.9412C218.019 75.8574 223.213 74.9061 228.417 75.1607Z" fill="black"/>
<path d="M233.949 235.357C229.085 235.358 224.415 233.435 220.948 230.004C217.481 226.573 215.493 221.909 215.414 217.017C215.189 202.839 215.072 185.371 215.072 183.374C215.069 178.518 215.764 173.686 217.136 169.029L217.129 169.028C217.939 166.691 218.917 164.416 220.056 162.221C216.56 166.907 213.778 172.091 211.802 177.602L211.808 177.604C210.436 182.26 209.741 187.092 209.744 191.949C209.744 193.945 209.861 211.413 210.087 225.591C210.166 230.483 212.153 235.148 215.621 238.579C219.088 242.01 223.757 243.932 228.621 243.931C232.631 243.93 236.533 242.622 239.742 240.201C242.95 237.781 245.292 234.38 246.416 230.507C243.008 233.633 238.56 235.363 233.949 235.357Z" fill="black"/>
<path d="M67.4147 312.819L73.9457 312.818L77.0532 287.477L67.4131 287.477L67.4147 312.819Z" fill="#FFB8B8"/>
<path d="M86.5422 318.919L66.015 318.92L66.0147 310.942L78.6109 310.941C80.7143 310.941 82.7316 311.782 84.2191 313.278C85.7065 314.774 86.5421 316.803 86.5422 318.919Z" fill="#FF6600"/>
<path d="M43.9735 312.819L50.5045 312.818L53.612 287.477L43.9719 287.477L43.9735 312.819Z" fill="#FFB8B8"/>
<path d="M63.1013 318.919L42.5741 318.92L42.5738 310.942L55.17 310.941C57.2734 310.941 59.2907 311.782 60.7781 313.278C62.2655 314.774 63.1012 316.803 63.1013 318.919Z" fill="#FF6600"/>
<path d="M49.6811 305.025L43.3015 304.688C42.9725 304.67 42.6502 304.587 42.3534 304.444C42.0565 304.3 41.7909 304.099 41.5719 303.851C41.353 303.604 41.185 303.315 41.0779 303.001C40.9707 302.688 40.9264 302.356 40.9475 302.026L48.5726 217.104L83.6866 226.635L87.0697 225.707L76.4902 300.885C76.4001 301.451 76.1209 301.969 75.6987 302.353C75.2766 302.737 74.7368 302.965 74.1684 302.999L67.2912 303.322C66.9473 303.341 66.6032 303.288 66.2806 303.167C65.9581 303.045 65.664 302.858 65.4171 302.616C65.1702 302.375 64.9758 302.084 64.8461 301.763C64.7165 301.442 64.6545 301.098 64.6639 300.752L65.91 255.631C65.9159 255.422 65.8438 255.219 65.708 255.061C65.5723 254.903 65.3827 254.802 65.1766 254.778C64.9705 254.754 64.7628 254.808 64.5945 254.93C64.4263 255.052 64.3096 255.234 64.2675 255.438L52.2503 303.032C52.1368 303.597 51.8322 304.105 51.3883 304.469C50.9445 304.833 50.3888 305.031 49.8161 305.029C49.7714 305.029 49.7264 305.028 49.6811 305.025Z" fill="#0698F9"/>
<path d="M68.5873 147.62C75.8139 147.62 81.6722 141.727 81.6722 134.458C81.6722 127.188 75.8139 121.295 68.5873 121.295C61.3607 121.295 55.5024 127.188 55.5024 134.458C55.5024 141.727 61.3607 147.62 68.5873 147.62Z" fill="#FFB8B8"/>
<path d="M46.8017 173.128L48.2405 204.353L48.7606 215.713C48.7813 216.208 48.9482 216.685 49.24 217.084C49.5317 217.482 49.9351 217.784 50.3984 217.951L84.1406 230.246C84.4132 230.348 84.702 230.399 84.9928 230.396C85.3251 230.398 85.6544 230.332 85.9609 230.203C86.2674 230.074 86.5449 229.884 86.7768 229.644C87.0087 229.405 87.1903 229.121 87.3106 228.809C87.431 228.498 87.4877 228.165 87.4773 227.831L86.094 171.686C86.0031 167.08 84.3175 162.649 81.3276 159.159C78.3377 155.669 74.2309 153.338 69.7153 152.567C69.3889 152.517 69.0569 152.466 68.7248 152.422C65.9248 152.072 63.0826 152.344 60.3982 153.218C57.7138 154.092 55.2524 155.548 53.1872 157.481C51.0487 159.46 49.3684 161.887 48.265 164.59C47.1616 167.294 46.6621 170.208 46.8017 173.128Z" fill="#CCCCCC"/>
<path d="M100.259 224.016C99.4611 223.767 98.7319 223.333 98.1299 222.75C97.5279 222.167 97.0697 221.451 96.7918 220.658C96.514 219.866 96.4242 219.018 96.5296 218.185C96.635 217.351 96.9327 216.553 97.3989 215.856L85.9565 200.551L95.8306 199.936L105.183 214.564C106.184 215.343 106.881 216.451 107.151 217.695C107.421 218.939 107.247 220.238 106.659 221.366C106.072 222.493 105.109 223.377 103.938 223.861C102.768 224.346 101.465 224.401 100.259 224.016Z" fill="#FFB8B8"/>
<path d="M92.214 213.086C91.9109 212.962 91.6352 212.779 91.4028 212.548C91.1704 212.316 90.986 212.04 90.8603 211.736L73.6215 170.422C73.2832 169.613 73.1067 168.745 73.1021 167.867C73.0975 166.99 73.2649 166.12 73.5947 165.307C73.9244 164.495 74.4101 163.756 75.024 163.132C75.6378 162.509 76.3678 162.013 77.1722 161.673C77.9766 161.334 78.8397 161.157 79.7121 161.153C80.5845 161.149 81.4491 161.318 82.2565 161.65C83.0639 161.983 83.7983 162.472 84.4177 163.09C85.0371 163.708 85.5294 164.442 85.8664 165.252L103.105 206.567C103.36 207.18 103.363 207.869 103.113 208.484C102.863 209.098 102.381 209.588 101.773 209.846L94.1199 213.077C93.8186 213.205 93.495 213.272 93.1679 213.274C92.8407 213.275 92.5165 213.211 92.214 213.086Z" fill="#CCCCCC"/>
<path d="M64.3803 211.629L80.9378 179.738C81.2571 179.125 81.8052 178.664 82.4618 178.457C83.1185 178.249 83.8301 178.313 84.4405 178.632L108.474 191.258C109.083 191.579 109.542 192.131 109.748 192.791C109.954 193.452 109.891 194.168 109.573 194.782L93.0155 226.672C92.6962 227.286 92.1481 227.747 91.4914 227.954C90.8348 228.161 90.1231 228.098 89.5127 227.778L65.4796 215.152C64.8699 214.831 64.4118 214.28 64.2057 213.619C63.9996 212.959 64.0624 212.243 64.3803 211.629Z" fill="#FF6600"/>
<path d="M75.4842 197.059C75.1899 196.272 74.7168 195.565 74.1028 194.995C73.4887 194.425 72.7507 194.008 71.9476 193.775C71.1446 193.543 70.2986 193.503 69.4774 193.658C68.6561 193.813 67.8823 194.159 67.2176 194.668L51.3531 184.082L51.3262 194.034L66.3954 202.561C67.2273 203.52 68.3684 204.154 69.6185 204.352C70.8687 204.55 72.1482 204.298 73.2325 203.642C74.3168 202.985 75.1368 201.966 75.5485 200.762C75.9602 199.558 75.9375 198.247 75.4842 197.059Z" fill="#FFB8B8"/>
<path d="M55.4263 199.297L42.4609 188.966C41.0583 188.492 39.791 187.683 38.7676 186.608C37.7443 185.533 36.9955 184.224 36.5857 182.794C36.1758 181.364 36.117 179.856 36.4144 178.398C36.7118 176.94 37.3564 175.576 38.293 174.424L50.0652 158.905C50.8833 157.899 52.0338 157.223 53.3065 157.001C54.5791 156.778 55.8889 157.024 56.9964 157.692C58.1038 158.361 58.935 159.409 59.338 160.643C59.741 161.878 59.6888 163.217 59.191 164.416L49.8765 179.743L63.565 186.274C63.8833 186.426 64.1659 186.644 64.3942 186.913C64.6226 187.183 64.7913 187.499 64.8894 187.839C64.9875 188.18 65.0127 188.537 64.9633 188.888C64.9139 189.239 64.791 189.575 64.6028 189.875L59.0773 198.671C58.8905 198.968 58.6438 199.222 58.3532 199.417C58.0626 199.612 57.7345 199.743 57.3902 199.802C57.3766 199.805 57.3628 199.807 57.3491 199.809C57.0108 199.86 56.6656 199.841 56.3349 199.753C56.0042 199.665 55.695 199.51 55.4263 199.297Z" fill="#CCCCCC"/>
<path d="M58.6999 143.271C58.6437 143.106 58.6259 142.93 58.6478 142.757C58.6697 142.584 58.7307 142.418 58.8262 142.272C58.9217 142.126 59.049 142.005 59.1986 141.916C59.3481 141.827 59.5158 141.774 59.6889 141.761C60.0433 141.78 60.3901 141.872 60.7084 142.03C61.0267 142.188 61.3098 142.409 61.5408 142.68C62.0143 143.229 62.5656 143.705 63.1769 144.093C63.8099 144.414 64.6684 144.368 65.0292 143.756C65.3681 143.182 65.1359 142.412 64.9307 141.745C64.4087 140.047 64.1167 138.286 64.0624 136.509C64.0033 134.526 64.2814 132.457 65.3728 130.91C66.7813 128.914 69.2999 128.156 71.6835 128.211C74.067 128.266 76.4119 129.006 78.7728 129.474C79.5879 129.636 80.5459 129.718 81.0911 129.083C81.6707 128.407 81.4579 127.313 81.2113 126.401C80.5715 124.034 79.8927 121.586 78.4062 119.674C76.799 117.688 74.503 116.388 71.9809 116.036C69.5594 115.734 67.1014 116.015 64.8088 116.855C61.0736 118.039 57.7869 120.342 55.3883 123.456C52.9156 126.768 51.8472 130.93 52.4166 135.032C52.9728 138.604 54.8548 141.832 57.6832 144.064L58.6999 143.271Z" fill="#2F2E41"/>
<path d="M224.425 312.924C220.944 311.398 217.862 309.08 215.424 306.152C212.986 303.224 211.258 299.766 210.376 296.05C209.494 292.335 209.483 288.465 210.343 284.744C211.202 281.024 212.91 277.556 215.331 274.613C212.524 276.674 210.185 279.312 208.47 282.352C206.754 285.392 205.701 288.764 205.381 292.245C205.06 295.726 205.478 299.235 206.609 302.541C207.74 305.846 209.556 308.872 211.938 311.417C214.32 313.962 217.213 315.969 220.425 317.303C223.637 318.638 227.094 319.27 230.567 319.158C234.041 319.046 237.45 318.192 240.57 316.653C243.691 315.114 246.449 312.924 248.664 310.231C245.21 312.77 241.154 314.355 236.901 314.828C232.649 315.3 228.347 314.644 224.425 312.924Z" fill="black"/>
</g>
<defs>
<clipPath id="clip0_110_288">
<rect width="450" height="319" fill="white" transform="translate(0 0.612305)"/>
</clipPath>
</defs>
</svg>
