<svg width="24" height="25" viewBox="0 0 24 25" fill="none" xmlns="http://www.w3.org/2000/svg">
<path d="M0 12.6123C0 19.2397 5.37258 24.6123 12 24.6123C18.6274 24.6123 24 19.2397 24 12.6123C24 5.98489 18.6274 0.612305 12 0.612305C5.37258 0.612305 0 5.98489 0 12.6123Z" fill="#0698F9"/>
<path d="M18 12.6123C18 9.3123 15.3 6.6123 12 6.6123C8.7 6.6123 6 9.3123 6 12.6123C6 15.6123 8.175 18.0873 11.025 18.5373V14.3373H9.525V12.6123H11.025V11.2623C11.025 9.7623 11.925 8.9373 13.275 8.9373C13.95 8.9373 14.625 9.0873 14.625 9.0873V10.5873H13.875C13.125 10.5873 12.9 11.0373 12.9 11.4873V12.6123H14.55L14.25 14.3373H12.825V18.6123C15.825 18.1623 18 15.6123 18 12.6123Z" fill="white"/>
</svg>
