<svg width="220" height="65" viewBox="0 0 220 65" fill="none" xmlns="http://www.w3.org/2000/svg">
<rect x="1.46004" y="0.811607" width="217.511" height="63.3053" rx="7.30446" fill="black"/>
<rect x="1.46004" y="0.811607" width="217.511" height="63.3053" rx="7.30446" stroke="#A6A6A6" stroke-width="1.62321"/>
<g filter="url(#filter0_ii_12_6573)">
<path d="M17.588 12.2359C17.1156 12.7358 16.8364 13.5117 16.8364 14.5165V50.4155C16.8364 51.4219 17.1156 52.1961 17.588 52.6961L17.7081 52.813L37.8181 32.703V32.466V32.229L17.7081 12.1174L17.588 12.2359Z" fill="url(#paint0_linear_12_6573)"/>
<path d="M44.5201 39.4085L37.8179 32.703V32.466V32.229L44.5217 25.5251L44.6727 25.6112L52.6151 30.1237C54.8827 31.4125 54.8827 33.5211 52.6151 34.8115L44.6727 39.3241L44.5201 39.4085Z" fill="url(#paint1_linear_12_6573)"/>
<g filter="url(#filter1_i_12_6573)">
<path d="M44.6728 39.3224L37.8164 32.466L17.5879 52.6961C18.3346 53.4882 19.5698 53.5856 20.9609 52.7967L44.6728 39.3224Z" fill="url(#paint2_linear_12_6573)"/>
</g>
<path d="M44.6728 25.6095L20.9609 12.1368C19.5698 11.3463 18.3346 11.4454 17.5879 12.2375L37.818 32.4676L44.6728 25.6095Z" fill="url(#paint3_linear_12_6573)"/>
</g>
<path d="M111.247 35.3068C107.429 35.3068 104.317 38.2107 104.317 42.2103C104.317 46.1855 107.429 49.1138 111.247 49.1138C115.066 49.1138 118.178 46.1855 118.178 42.2103C118.176 38.2107 115.065 35.3068 111.247 35.3068ZM111.247 46.3966C109.155 46.3966 107.351 44.6711 107.351 42.2119C107.351 39.7268 109.156 38.0273 111.247 38.0273C113.339 38.0273 115.143 39.7268 115.143 42.2119C115.143 44.6695 113.339 46.3966 111.247 46.3966ZM96.1283 35.3068C92.3105 35.3068 89.1988 38.2107 89.1988 42.2103C89.1988 46.1855 92.3105 49.1138 96.1283 49.1138C99.9477 49.1138 103.059 46.1855 103.059 42.2103C103.059 38.2107 99.9477 35.3068 96.1283 35.3068ZM96.1283 46.3966C94.036 46.3966 92.2326 44.6711 92.2326 42.2119C92.2326 39.7268 94.0376 38.0273 96.1283 38.0273C98.2206 38.0273 100.024 39.7268 100.024 42.2119C100.026 44.6695 98.2206 46.3966 96.1283 46.3966ZM78.1464 37.4267V40.355H85.1554C84.946 42.0025 84.3973 43.2053 83.5598 44.0413C82.5404 45.0607 80.9448 46.1855 78.1464 46.1855C73.8319 46.1855 70.4588 42.707 70.4588 38.3925C70.4588 34.078 73.8319 30.5994 78.1464 30.5994C80.474 30.5994 82.1735 31.5149 83.4283 32.6918L85.4946 30.6254C83.7416 28.9519 81.4155 27.6712 78.1464 27.6712C72.2362 27.6712 67.2676 32.4824 67.2676 38.3925C67.2676 44.3026 72.2362 49.1138 78.1464 49.1138C81.336 49.1138 83.7432 48.0668 85.6245 46.106C87.5594 44.1711 88.1616 41.4506 88.1616 39.2544C88.1616 38.5759 88.1096 37.9477 88.0041 37.4251H78.1464V37.4267ZM151.691 39.7008C151.116 38.1588 149.363 35.3068 145.781 35.3068C142.224 35.3068 139.268 38.1052 139.268 42.2103C139.268 46.08 142.198 49.1138 146.12 49.1138C149.284 49.1138 151.115 47.179 151.874 46.0541L149.521 44.4844C148.737 45.6353 147.664 46.3933 146.12 46.3933C144.578 46.3933 143.479 45.6872 142.773 44.301L152.004 40.4832L151.691 39.7008ZM142.276 42.0025C142.198 39.334 144.343 37.9753 145.886 37.9753C147.089 37.9753 148.108 38.5775 148.449 39.4395L142.276 42.0025ZM134.772 48.6967H137.804V28.4049H134.772V48.6967ZM129.802 36.8504H129.698C129.018 36.0388 127.71 35.3068 126.064 35.3068C122.611 35.3068 119.447 38.3406 119.447 42.2379C119.447 46.1076 122.611 49.1154 126.064 49.1154C127.711 49.1154 129.018 48.3834 129.698 47.5474H129.802V48.5408C129.802 51.1818 128.39 52.594 126.116 52.594C124.259 52.594 123.108 51.2613 122.637 50.1364L119.996 51.2354C120.754 53.0647 122.767 55.3145 126.116 55.3145C129.672 55.3145 132.68 53.2222 132.68 48.122V35.7272H129.804V36.8504H129.802ZM126.325 46.3966C124.233 46.3966 122.481 44.6435 122.481 42.2379C122.481 39.8047 124.233 38.0273 126.325 38.0273C128.39 38.0273 130.011 39.8047 130.011 42.2379C130.011 44.6435 128.39 46.3966 126.325 46.3966ZM165.901 28.4049H158.643V48.6967H161.67V41.0091H165.899C169.256 41.0091 172.557 38.5792 172.557 34.7078C172.557 30.8364 169.257 28.4049 165.901 28.4049ZM165.978 38.1847H161.67V31.2293H165.978C168.243 31.2293 169.528 33.1041 169.528 34.7078C169.528 36.2791 168.243 38.1847 165.978 38.1847ZM184.697 35.2711C182.504 35.2711 180.233 36.2369 179.294 38.3779L181.982 39.4995C182.556 38.3779 183.628 38.011 184.749 38.011C186.316 38.011 187.908 38.9509 187.934 40.6212V40.8306C187.385 40.5173 186.21 40.0482 184.775 40.0482C181.878 40.0482 178.927 41.6405 178.927 44.6159C178.927 47.3315 181.303 49.0797 183.965 49.0797C186.001 49.0797 187.124 48.1659 187.829 47.0945H187.932V48.6609H190.857V40.8809C190.859 37.2806 188.168 35.2711 184.697 35.2711ZM184.33 46.3917C183.34 46.3917 181.956 45.895 181.956 44.6678C181.956 43.1014 183.68 42.5008 185.168 42.5008C186.497 42.5008 187.126 42.7882 187.934 43.1794C187.699 45.0607 186.08 46.3917 184.33 46.3917ZM201.509 35.7142L198.037 44.512H197.933L194.329 35.7142H191.067L196.471 48.01L193.39 54.8503H196.548L204.877 35.7142H201.509ZM174.229 48.6967H177.257V28.4049H174.229V48.6967Z" fill="white"/>
<path d="M77.6179 16.6265C77.6179 17.9868 77.2153 19.0695 76.4086 19.8778C75.4931 20.8388 74.2984 21.3192 72.831 21.3192C71.4253 21.3192 70.229 20.8323 69.247 19.8583C68.2633 18.8828 67.7715 17.6751 67.7715 16.2337C67.7715 14.7907 68.2633 13.583 69.247 12.6091C70.229 11.6335 71.4253 11.1466 72.831 11.1466C73.529 11.1466 74.1962 11.2829 74.8292 11.554C75.4639 11.8267 75.972 12.1887 76.3518 12.6415L75.4964 13.4986C74.8519 12.7276 73.964 12.3429 72.8294 12.3429C71.8035 12.3429 70.9173 12.7032 70.169 13.4239C69.4207 14.1446 69.0473 15.0812 69.0473 16.2321C69.0473 17.3829 69.4207 18.3195 70.169 19.0402C70.9173 19.761 71.8035 20.1213 72.8294 20.1213C73.917 20.1213 74.8243 19.7593 75.5499 19.0338C76.0207 18.5614 76.2934 17.904 76.3664 17.0615H72.8294V15.8912H77.5481C77.5968 16.1461 77.6179 16.3912 77.6179 16.6265Z" fill="white"/>
<path d="M85.1011 12.5588H80.6664V15.6462H84.666V16.8165H80.6664V19.9039H85.1011V21.1018H79.415V11.3625H85.1011V12.5588Z" fill="white"/>
<path d="M90.3779 21.1018H89.1265V12.5588H86.4059V11.3625H93.0985V12.5588H90.3779V21.1018Z" fill="white"/>
<path d="M97.9404 21.1018V11.3625H99.1919V21.1018H97.9404Z" fill="white"/>
<path d="M104.742 21.1018H103.49V12.5588H100.77V11.3625H107.462V12.5588H104.742V21.1018Z" fill="white"/>
<path d="M120.131 19.8438C119.174 20.8275 117.984 21.3193 116.56 21.3193C115.137 21.3193 113.947 20.8275 112.991 19.8438C112.033 18.8601 111.556 17.6557 111.556 16.2322C111.556 14.8086 112.033 13.6042 112.991 12.6205C113.947 11.6368 115.137 11.1434 116.56 11.1434C117.976 11.1434 119.164 11.6385 120.125 12.627C121.086 13.6155 121.566 14.8167 121.566 16.2322C121.566 17.6557 121.087 18.8601 120.131 19.8438ZM113.914 19.0273C114.635 19.7578 115.516 20.1214 116.56 20.1214C117.604 20.1214 118.487 19.7562 119.206 19.0273C119.927 18.2969 120.289 17.3652 120.289 16.2322C120.289 15.0992 119.927 14.1674 119.206 13.437C118.487 12.7065 117.604 12.3429 116.56 12.3429C115.516 12.3429 114.635 12.7082 113.914 13.437C113.195 14.1674 112.833 15.0992 112.833 16.2322C112.833 17.3652 113.195 18.2969 113.914 19.0273Z" fill="white"/>
<path d="M123.323 21.1018V11.3625H124.845L129.578 18.9381H129.632L129.578 17.0616V11.3625H130.83V21.1018H129.523L124.571 13.1578H124.517L124.571 15.0342V21.1018H123.323Z" fill="white"/>
<path d="M77.6179 16.6265C77.6179 17.9868 77.2153 19.0695 76.4086 19.8778C75.4931 20.8388 74.2984 21.3192 72.831 21.3192C71.4253 21.3192 70.229 20.8323 69.247 19.8583C68.2633 18.8828 67.7715 17.6751 67.7715 16.2337C67.7715 14.7907 68.2633 13.583 69.247 12.6091C70.229 11.6335 71.4253 11.1466 72.831 11.1466C73.529 11.1466 74.1962 11.2829 74.8292 11.554C75.4639 11.8267 75.972 12.1887 76.3518 12.6415L75.4964 13.4986C74.8519 12.7276 73.964 12.3429 72.8294 12.3429C71.8035 12.3429 70.9173 12.7032 70.169 13.4239C69.4207 14.1446 69.0473 15.0812 69.0473 16.2321C69.0473 17.3829 69.4207 18.3195 70.169 19.0402C70.9173 19.761 71.8035 20.1213 72.8294 20.1213C73.917 20.1213 74.8243 19.7593 75.5499 19.0338C76.0207 18.5614 76.2934 17.904 76.3664 17.0615H72.8294V15.8912H77.5481C77.5968 16.1461 77.6179 16.3912 77.6179 16.6265Z" stroke="white" stroke-width="0.324643" stroke-miterlimit="10"/>
<path d="M85.1011 12.5588H80.6664V15.6462H84.666V16.8165H80.6664V19.9039H85.1011V21.1018H79.415V11.3625H85.1011V12.5588Z" stroke="white" stroke-width="0.324643" stroke-miterlimit="10"/>
<path d="M90.3779 21.1018H89.1265V12.5588H86.4059V11.3625H93.0985V12.5588H90.3779V21.1018Z" stroke="white" stroke-width="0.324643" stroke-miterlimit="10"/>
<path d="M97.9404 21.1018V11.3625H99.1919V21.1018H97.9404Z" stroke="white" stroke-width="0.324643" stroke-miterlimit="10"/>
<path d="M104.742 21.1018H103.49V12.5588H100.77V11.3625H107.462V12.5588H104.742V21.1018Z" stroke="white" stroke-width="0.324643" stroke-miterlimit="10"/>
<path d="M120.131 19.8438C119.174 20.8275 117.984 21.3193 116.56 21.3193C115.137 21.3193 113.947 20.8275 112.991 19.8438C112.033 18.8601 111.556 17.6557 111.556 16.2322C111.556 14.8086 112.033 13.6042 112.991 12.6205C113.947 11.6368 115.137 11.1434 116.56 11.1434C117.976 11.1434 119.164 11.6385 120.125 12.627C121.086 13.6155 121.566 14.8167 121.566 16.2322C121.566 17.6557 121.087 18.8601 120.131 19.8438ZM113.914 19.0273C114.635 19.7578 115.516 20.1214 116.56 20.1214C117.604 20.1214 118.487 19.7562 119.206 19.0273C119.927 18.2969 120.289 17.3652 120.289 16.2322C120.289 15.0992 119.927 14.1674 119.206 13.437C118.487 12.7065 117.604 12.3429 116.56 12.3429C115.516 12.3429 114.635 12.7082 113.914 13.437C113.195 14.1674 112.833 15.0992 112.833 16.2322C112.833 17.3652 113.195 18.2969 113.914 19.0273Z" stroke="white" stroke-width="0.324643" stroke-miterlimit="10"/>
<path d="M123.323 21.1018V11.3625H124.845L129.578 18.9381H129.632L129.578 17.0616V11.3625H130.83V21.1018H129.523L124.571 13.1578H124.517L124.571 15.0342V21.1018H123.323Z" stroke="white" stroke-width="0.324643" stroke-miterlimit="10"/>
<defs>
<filter id="filter0_ii_12_6573" x="16.8364" y="11.5913" width="37.4795" height="41.7503" filterUnits="userSpaceOnUse" color-interpolation-filters="sRGB">
<feFlood flood-opacity="0" result="BackgroundImageFix"/>
<feBlend mode="normal" in="SourceGraphic" in2="BackgroundImageFix" result="shape"/>
<feColorMatrix in="SourceAlpha" type="matrix" values="0 0 0 0 0 0 0 0 0 0 0 0 0 0 0 0 0 0 127 0" result="hardAlpha"/>
<feOffset dy="-0.243482"/>
<feComposite in2="hardAlpha" operator="arithmetic" k2="-1" k3="1"/>
<feColorMatrix type="matrix" values="0 0 0 0 0 0 0 0 0 0 0 0 0 0 0 0 0 0 0.12 0"/>
<feBlend mode="normal" in2="shape" result="effect1_innerShadow_12_6573"/>
<feColorMatrix in="SourceAlpha" type="matrix" values="0 0 0 0 0 0 0 0 0 0 0 0 0 0 0 0 0 0 127 0" result="hardAlpha"/>
<feOffset dy="0.243482"/>
<feComposite in2="hardAlpha" operator="arithmetic" k2="-1" k3="1"/>
<feColorMatrix type="matrix" values="0 0 0 0 1 0 0 0 0 1 0 0 0 0 1 0 0 0 0.25 0"/>
<feBlend mode="normal" in2="effect1_innerShadow_12_6573" result="effect2_innerShadow_12_6573"/>
</filter>
<filter id="filter1_i_12_6573" x="17.5879" y="32.466" width="27.085" height="20.8756" filterUnits="userSpaceOnUse" color-interpolation-filters="sRGB">
<feFlood flood-opacity="0" result="BackgroundImageFix"/>
<feBlend mode="normal" in="SourceGraphic" in2="BackgroundImageFix" result="shape"/>
<feColorMatrix in="SourceAlpha" type="matrix" values="0 0 0 0 0 0 0 0 0 0 0 0 0 0 0 0 0 0 127 0" result="hardAlpha"/>
<feOffset dy="-0.243482"/>
<feComposite in2="hardAlpha" operator="arithmetic" k2="-1" k3="1"/>
<feColorMatrix type="matrix" values="0 0 0 0 0 0 0 0 0 0 0 0 0 0 0 0 0 0 0.08 0"/>
<feBlend mode="normal" in2="shape" result="effect1_innerShadow_12_6573"/>
</filter>
<linearGradient id="paint0_linear_12_6573" x1="36.0355" y1="14.1367" x2="8.7947" y2="41.3774" gradientUnits="userSpaceOnUse">
<stop stop-color="#00A0FF"/>
<stop offset="0.0066" stop-color="#00A1FF"/>
<stop offset="0.2601" stop-color="#00BEFF"/>
<stop offset="0.5122" stop-color="#00D2FF"/>
<stop offset="0.7604" stop-color="#00DFFF"/>
<stop offset="1" stop-color="#00E3FF"/>
</linearGradient>
<linearGradient id="paint1_linear_12_6573" x1="55.5669" y1="32.466" x2="16.2918" y2="32.466" gradientUnits="userSpaceOnUse">
<stop stop-color="#FFE000"/>
<stop offset="0.4087" stop-color="#FFBD00"/>
<stop offset="0.7754" stop-color="#FFA500"/>
<stop offset="1" stop-color="#FF9C00"/>
</linearGradient>
<linearGradient id="paint2_linear_12_6573" x1="40.9493" y1="36.1895" x2="4.00744" y2="73.1314" gradientUnits="userSpaceOnUse">
<stop stop-color="#FF3A44"/>
<stop offset="1" stop-color="#C31162"/>
</linearGradient>
<linearGradient id="paint3_linear_12_6573" x1="12.4933" y1="0.287065" x2="28.9889" y2="16.7826" gradientUnits="userSpaceOnUse">
<stop stop-color="#32A071"/>
<stop offset="0.0685" stop-color="#2DA771"/>
<stop offset="0.4762" stop-color="#15CF74"/>
<stop offset="0.8009" stop-color="#06E775"/>
<stop offset="1" stop-color="#00F076"/>
</linearGradient>
</defs>
</svg>
