<svg width="24" height="25" viewBox="0 0 24 25" fill="none" xmlns="http://www.w3.org/2000/svg">
<path d="M0 12.6123C0 19.2397 5.37258 24.6123 12 24.6123C18.6274 24.6123 24 19.2397 24 12.6123C24 5.98489 18.6274 0.612305 12 0.612305C5.37258 0.612305 0 5.98489 0 12.6123Z" fill="#0698F9"/>
<path d="M11.9999 7.51221C13.6499 7.51221 13.8749 7.51221 14.5499 7.51221C15.1499 7.51221 15.4499 7.66221 15.6749 7.73721C15.9749 7.88721 16.1999 7.96221 16.4249 8.18721C16.6499 8.41221 16.7999 8.63721 16.8749 8.93721C16.9499 9.16221 17.0249 9.46221 17.0999 10.0622C17.0999 10.7372 17.0999 10.8872 17.0999 12.6122C17.0999 14.3372 17.0999 14.4872 17.0999 15.1622C17.0999 15.7622 16.9499 16.0622 16.8749 16.2872C16.7249 16.5872 16.6499 16.8122 16.4249 17.0372C16.1999 17.2622 15.9749 17.4122 15.6749 17.4872C15.4499 17.5622 15.1499 17.6372 14.5499 17.7122C13.8749 17.7122 13.7249 17.7122 11.9999 17.7122C10.2749 17.7122 10.1249 17.7122 9.4499 17.7122C8.8499 17.7122 8.5499 17.5622 8.3249 17.4872C8.0249 17.3372 7.7999 17.2622 7.5749 17.0372C7.3499 16.8122 7.1999 16.5872 7.1249 16.2872C7.0499 16.0622 6.9749 15.7622 6.8999 15.1622C6.8999 14.4872 6.8999 14.3372 6.8999 12.6122C6.8999 10.8872 6.8999 10.7372 6.8999 10.0622C6.8999 9.46221 7.0499 9.16221 7.1249 8.93721C7.2749 8.63721 7.3499 8.41221 7.5749 8.18721C7.7999 7.96221 8.0249 7.81221 8.3249 7.73721C8.5499 7.66221 8.8499 7.58721 9.4499 7.51221C10.1249 7.51221 10.3499 7.51221 11.9999 7.51221ZM11.9999 6.38721C10.2749 6.38721 10.1249 6.38721 9.4499 6.38721C8.7749 6.38721 8.3249 6.53721 7.9499 6.68721C7.5749 6.83721 7.1999 7.06221 6.8249 7.43721C6.4499 7.81221 6.2999 8.11221 6.0749 8.56221C5.9249 8.93721 5.8499 9.38721 5.7749 10.0622C5.7749 10.7372 5.7749 10.9622 5.7749 12.6122C5.7749 14.3372 5.7749 14.4872 5.7749 15.1622C5.7749 15.8372 5.9249 16.2872 6.0749 16.6622C6.2249 17.0372 6.4499 17.4122 6.8249 17.7872C7.1999 18.1622 7.4999 18.3122 7.9499 18.5372C8.3249 18.6872 8.7749 18.7622 9.4499 18.8372C10.1249 18.8372 10.3499 18.8372 11.9999 18.8372C13.6499 18.8372 13.8749 18.8372 14.5499 18.8372C15.2249 18.8372 15.6749 18.6872 16.0499 18.5372C16.4249 18.3872 16.7999 18.1622 17.1749 17.7872C17.5499 17.4122 17.6999 17.1122 17.9249 16.6622C18.0749 16.2872 18.1499 15.8372 18.2249 15.1622C18.2249 14.4872 18.2249 14.2622 18.2249 12.6122C18.2249 10.9622 18.2249 10.7372 18.2249 10.0622C18.2249 9.38721 18.0749 8.93721 17.9249 8.56221C17.7749 8.18721 17.5499 7.81221 17.1749 7.43721C16.7999 7.06221 16.4999 6.91221 16.0499 6.68721C15.6749 6.53721 15.2249 6.46221 14.5499 6.38721C13.8749 6.38721 13.7249 6.38721 11.9999 6.38721Z" fill="white"/>
<path d="M11.9999 9.38721C10.1999 9.38721 8.7749 10.8122 8.7749 12.6122C8.7749 14.4122 10.1999 15.8372 11.9999 15.8372C13.7999 15.8372 15.2249 14.4122 15.2249 12.6122C15.2249 10.8122 13.7999 9.38721 11.9999 9.38721ZM11.9999 14.7122C10.8749 14.7122 9.8999 13.8122 9.8999 12.6122C9.8999 11.4872 10.7999 10.5122 11.9999 10.5122C13.1249 10.5122 14.0999 11.4122 14.0999 12.6122C14.0999 13.7372 13.1249 14.7122 11.9999 14.7122Z" fill="white"/>
<path d="M15.2999 10.0622C15.7141 10.0622 16.0499 9.72642 16.0499 9.31221C16.0499 8.89799 15.7141 8.56221 15.2999 8.56221C14.8857 8.56221 14.5499 8.89799 14.5499 9.31221C14.5499 9.72642 14.8857 10.0622 15.2999 10.0622Z" fill="white"/>
</svg>
