<svg width="24" height="25" viewBox="0 0 24 25" fill="none" xmlns="http://www.w3.org/2000/svg">
<path d="M0 12.6123C0 19.2397 5.37258 24.6123 12 24.6123C18.6274 24.6123 24 19.2397 24 12.6123C24 5.98489 18.6274 0.612305 12 0.612305C5.37258 0.612305 0 5.98489 0 12.6123Z" fill="#0698F9"/>
<path d="M8.7 18.6123H6.15V10.5873H8.7V18.6123ZM7.425 9.4623C6.6 9.4623 6 8.8623 6 8.0373C6 7.2123 6.675 6.6123 7.425 6.6123C8.25 6.6123 8.85 7.2123 8.85 8.0373C8.85 8.8623 8.25 9.4623 7.425 9.4623ZM18 18.6123H15.45V14.2623C15.45 12.9873 14.925 12.6123 14.175 12.6123C13.425 12.6123 12.675 13.2123 12.675 14.3373V18.6123H10.125V10.5873H12.525V11.7123C12.75 11.1873 13.65 10.3623 14.925 10.3623C16.35 10.3623 17.85 11.1873 17.85 13.6623V18.6123H18Z" fill="white"/>
</svg>
