<svg width="21" height="20" viewBox="0 0 21 20" fill="none" xmlns="http://www.w3.org/2000/svg">
<path d="M8.18359 14.4218C7.29297 17.0703 3.76172 17.0703 3.76172 17.0703C3.76172 17.0703 3.76172 13.539 6.41016 12.6484" stroke="#F8F9FF" stroke-width="1.66667" stroke-linecap="round" stroke-linejoin="round"/>
<path d="M16.1367 8.23437L10.832 13.5391L7.29297 10L12.5977 4.69531C14.6055 2.6875 16.6133 2.71094 17.4727 2.83594C17.6053 2.85363 17.7284 2.91447 17.823 3.00907C17.9176 3.10367 17.9784 3.22677 17.9961 3.35937C18.1211 4.21875 18.1445 6.22656 16.1367 8.23437Z" stroke="#F8F9FF" stroke-width="1.66667" stroke-linecap="round" stroke-linejoin="round"/>
<path d="M15.2539 9.11722V14.1641C15.2516 14.3289 15.1842 14.4862 15.0664 14.6016L12.543 17.1328C12.4629 17.2128 12.3626 17.2695 12.2529 17.297C12.1431 17.3244 12.0279 17.3216 11.9197 17.2887C11.8114 17.2558 11.7141 17.1941 11.6381 17.1103C11.5621 17.0264 11.5103 16.9235 11.4883 16.8125L10.832 13.5391" stroke="#F8F9FF" stroke-width="1.66667" stroke-linecap="round" stroke-linejoin="round"/>
<path d="M11.715 5.57809H6.66816C6.5033 5.58044 6.34605 5.64784 6.23066 5.76559L3.69941 8.28903C3.61944 8.36909 3.56271 8.46935 3.53526 8.57913C3.50782 8.6889 3.51069 8.80407 3.54357 8.91234C3.57646 9.02061 3.63811 9.11793 3.72197 9.1939C3.80583 9.26987 3.90874 9.32165 4.01972 9.34372L7.29316 9.99997" stroke="#F8F9FF" stroke-width="1.66667" stroke-linecap="round" stroke-linejoin="round"/>
</svg>
