<svg width="121" height="25" viewBox="0 0 121 25" fill="none" xmlns="http://www.w3.org/2000/svg">
<path d="M6.325 22.6123L8.65 15.0123L2.5 10.6123H10.1L12.5 2.6123L14.9 10.6123H22.5L16.35 15.0123L18.675 22.6123L12.5 17.9123L6.325 22.6123Z" fill="#F8D57E"/>
<path d="M30.325 22.6123L32.65 15.0123L26.5 10.6123H34.1L36.5 2.6123L38.9 10.6123H46.5L40.35 15.0123L42.675 22.6123L36.5 17.9123L30.325 22.6123Z" fill="#F8D57E"/>
<path d="M54.325 22.6123L56.65 15.0123L50.5 10.6123H58.1L60.5 2.6123L62.9 10.6123H70.5L64.35 15.0123L66.675 22.6123L60.5 17.9123L54.325 22.6123Z" fill="#F8D57E"/>
<path d="M78.325 22.6123L80.65 15.0123L74.5 10.6123H82.1L84.5 2.6123L86.9 10.6123H94.5L88.35 15.0123L90.675 22.6123L84.5 17.9123L78.325 22.6123Z" fill="#F8D57E"/>
<path d="M102.325 22.6123L104.65 15.0123L98.5 10.6123H106.1L108.5 2.6123L110.9 10.6123H118.5L112.35 15.0123L114.675 22.6123L108.5 17.9123L102.325 22.6123Z" fill="#F8D57E"/>
</svg>
