<svg width="24" height="25" viewBox="0 0 24 25" fill="none" xmlns="http://www.w3.org/2000/svg">
<path d="M0 12.6123C0 19.2397 5.37258 24.6123 12 24.6123C18.6274 24.6123 24 19.2397 24 12.6123C24 5.98489 18.6274 0.612305 12 0.612305C5.37258 0.612305 0 5.98489 0 12.6123Z" fill="#0698F9"/>
<path d="M18 8.8623C17.55 9.0873 17.1 9.1623 16.575 9.2373C17.1 8.9373 17.475 8.4873 17.625 7.8873C17.175 8.1873 16.65 8.3373 16.05 8.4873C15.6 8.0373 14.925 7.7373 14.25 7.7373C12.675 7.7373 11.475 9.2373 11.85 10.7373C9.825 10.6623 8.025 9.6873 6.75 8.1873C6.075 9.3123 6.45 10.7373 7.5 11.4873C7.125 11.4873 6.75 11.3373 6.375 11.1873C6.375 12.3123 7.2 13.3623 8.325 13.6623C7.95 13.7373 7.575 13.8123 7.2 13.7373C7.5 14.7123 8.4 15.4623 9.525 15.4623C8.625 16.1373 7.275 16.5123 6 16.3623C7.125 17.0373 8.4 17.4873 9.75 17.4873C14.325 17.4873 16.875 13.6623 16.725 10.1373C17.25 9.8373 17.7 9.3873 18 8.8623Z" fill="white"/>
</svg>
